<svg id="Capa_1" enable-background="new 0 0 512 512" height="512" viewBox="0 0 512 512" width="512" xmlns="http://www.w3.org/2000/svg"><g><path d="m58.583 43.117c-8.284 0-15 6.716-15 15v35.528c0 8.284 6.716 15 15 15s15-6.716 15-15v-35.528c0-8.284-6.716-15-15-15z" fill="#9b786f"/><path d="m20 232.41-20 38.59v182.883c0 8.284 6.716 15 15 15h482c8.284 0 15-6.716 15-15v-182.883l-20-38.589h-472z" fill="#9b786f"/><path d="m306.489 232.41-50 170.975v65.498h240.511c8.284 0 15-6.716 15-15v-182.883l-20-38.589h-185.511z" fill="#704c55"/><path d="m497 43.117h-356.791c-4.669 0-9.071 2.174-11.91 5.881l-25.497 33.299h-87.802c-8.284 0-15 6.716-15 15v173.703h512v-212.883c0-8.284-6.716-15-15-15z" fill="#d9f2ff"/><path d="m497 43.117h-240.511v65.492l146.144 162.391h109.367v-212.883c0-8.284-6.716-15-15-15z" fill="#c4e1ff"/><circle cx="256" cy="256" fill="#47568c" r="147.391"/><path d="m437.022 98.471h-12.947c-8.284 0-15 6.716-15 15s6.716 15 15 15h12.947c8.284 0 15-6.716 15-15s-6.715-15-15-15z" fill="#47568c"/><path d="m256.489 108.615v60.4l30 86.985-30 86.987v60.399c81.048-.266 146.903-66.278 146.903-147.386s-65.855-147.12-146.903-147.385z" fill="#29376d"/><circle cx="256" cy="256" fill="#61729b" r="86.985"/><path d="m256.489 169.021v173.958c47.739-.265 86.496-39.179 86.496-86.979s-38.756-86.714-86.496-86.979z" fill="#47568c"/></g></svg>