<svg height="511pt" viewBox="0 -28 511.99866 511" width="511pt" xmlns="http://www.w3.org/2000/svg"><path d="m332.75 98.636719v-20.199219c0-8.925781 7.234375-16.160156 16.15625-16.160156h28.277344c8.925781 0 16.160156 7.234375 16.160156 16.160156v20.195312h-60.59375zm0 0" fill="#d8d8d8"/><path d="m377.183594 62.28125h-18.179688c8.925782 0 16.160156 7.234375 16.160156 16.15625v20.199219h18.179688v-20.199219c-.003906-8.921875-7.238281-16.15625-16.160156-16.15625zm0 0" fill="#bababa"/><path d="m401.417969 356.148438h-290.839844c-22.308594 0-40.394531-18.082032-40.394531-40.394532v-175.714844c0-22.308593 18.085937-40.394531 40.394531-40.394531h290.839844c22.3125 0 40.398437 18.085938 40.398437 40.394531v175.714844c0 22.308594-18.085937 40.394532-40.398437 40.394532zm0 0" fill="#757575"/><path d="m416.730469 102.65625c1.203125 3.832031 1.855469 7.90625 1.855469 12.136719v195.914062c0 11.152344-9.042969 20.195313-20.195313 20.195313h-311.039063c-5.417968 0-10.585937-1.074219-15.308593-3.011719 5.152343 16.378906 20.457031 28.257813 38.535156 28.257813h290.839844c22.3125 0 40.398437-18.082032 40.398437-40.394532v-175.714844c0-16.890624-10.371094-31.351562-25.085937-37.382812zm0 0" fill="#595959"/><path d="m445.671875 297.578125c16.496094 0 29.820313 13.601563 29.363281 30.203125-.4375 16.003906-13.96875 28.550781-29.976562 28.550781h-103.699219v-22.503906c0-8.5625-9.988281-13.238281-16.566406-7.757813l-62.257813 51.882813c-4.84375 4.039063-4.84375 11.480469 0 15.515625l62.257813 51.886719c6.578125 5.480469 16.566406.800781 16.566406-7.757813v-22.507812h103.433594c32.292969 0 59.207031-25.6875 59.625-57.976563.429687-32.808593-26.039063-59.535156-58.746094-59.535156zm0 0" fill="#d8d8d8"/><path d="m347.898438 227.898438c0 50.75-41.144532 91.894531-91.898438 91.894531s-91.898438-41.144531-91.898438-91.894531c0-50.753907 41.144532-91.898438 91.898438-91.898438s91.898438 41.144531 91.898438 91.898438zm0 0" fill="#d8d8d8"/><path d="m304.980469 150.132812c8.953125 14.179688 14.136719 30.976563 14.136719 48.984376 0 50.753906-41.144532 91.894531-91.898438 91.894531-18.007812 0-34.800781-5.183594-48.980469-14.132813 16.273438 25.785156 45.015625 42.914063 77.761719 42.914063 50.753906 0 91.898438-41.144531 91.898438-91.894531 0-32.746094-17.132813-61.488282-42.917969-77.765626zm0 0" fill="#bababa"/><path d="m316.59375 227.898438c0 33.460937-27.128906 60.589843-60.59375 60.589843s-60.59375-27.128906-60.59375-60.589843c0-33.464844 27.128906-60.59375 60.59375-60.59375s60.59375 27.128906 60.59375 60.59375zm0 0" fill="#8fe7ff"/><path d="m213.082031 245.570312c0-33.464843 27.125-60.59375 60.589844-60.59375 12.210937 0 23.570313 3.625 33.082031 9.839844-10.816406-16.558594-29.5-27.511718-50.753906-27.511718-33.464844 0-60.59375 27.128906-60.59375 60.59375 0 21.253906 10.953125 39.9375 27.511719 50.753906-6.214844-9.515625-9.835938-20.871094-9.835938-33.082032zm0 0" fill="#53daf9"/><path d="m66.328125 158.21875c-16.5 0-29.820313-13.605469-29.367187-30.207031.441406-16 13.972656-28.550781 29.980468-28.550781h103.699219v22.507812c0 8.558594 9.984375 13.238281 16.5625 7.757812l62.261719-51.886718c4.84375-4.035156 4.84375-11.476563 0-15.515625l-62.261719-51.882813c-6.574219-5.480468-16.5625-.804687-16.5625 7.757813v22.503906h-103.4375c-32.289063 0-59.207031 25.6875-59.625 57.976563-.425781 32.808593 26.042969 59.539062 58.75 59.539062zm0 0" fill="#d8d8d8"/><path d="m145.925781 161.246094c0 11.152344-9.042969 20.195312-20.199219 20.195312-11.152343 0-20.195312-9.042968-20.195312-20.195312 0-11.15625 9.042969-20.195313 20.195312-20.195313 11.15625 0 20.199219 9.039063 20.199219 20.195313zm0 0" fill="#ff5f5f"/><path d="m492.878906 309.738281c-11.6875-11.839843-27.015625-18.722656-43.488281-19.625v-92.511719c0-4.183593-3.394531-7.574218-7.574219-7.574218-4.183594 0-7.574218 3.390625-7.574218 7.574218v118.152344c0 18.097656-14.722657 32.820313-32.824219 32.820313h-52.484375v-14.746094c0-6.929687-3.898438-13.0625-10.175782-16.003906-6.277343-2.941407-13.484374-2.011719-18.8125 2.425781l-33.988281 28.324219h-175.378906c-18.097656 0-32.820313-14.722657-32.820313-32.820313v-175.714844c0-18.097656 14.722657-32.820312 32.820313-32.820312h52.488281v14.746094c0 6.933594 3.898438 13.066406 10.175782 16.003906 6.277343 2.941406 13.484374 2.011719 18.8125-2.425781l33.988281-28.324219h175.375c18.101562 0 32.824219 14.722656 32.824219 32.820312v22.21875c0 4.179688 3.390624 7.570313 7.574218 7.570313 4.179688 0 7.574219-3.390625 7.574219-7.570313v-22.21875c0-26.449218-21.519531-47.96875-47.96875-47.96875h-.507813v-13.632812c0-13.085938-10.644531-23.734375-23.730468-23.734375h-28.277344c-13.085938 0-23.730469 10.648437-23.730469 23.734375v13.632812h-80.957031l10.09375-8.410156c4.039062-3.371094 6.359375-8.316406 6.359375-13.578125 0-5.257812-2.320313-10.207031-6.359375-13.574219l-62.261719-51.886718c-5.324219-4.4375-12.535156-5.367188-18.808593-2.425782-6.277344 2.941407-10.175782 9.070313-10.175782 16.003907v14.929687h-22.695312c-4.183594 0-7.574219 3.390625-7.574219 7.574219s3.390625 7.574219 7.574219 7.574219h30.269531c4.179687 0 7.570313-3.390625 7.570313-7.574219v-22.503906c0-1.394531.914062-2.03125 1.457031-2.285157.542969-.253906 1.613281-.546874 2.6875.347657l62.257812 51.882812c.789063.660157.910157 1.5.910157 1.9375 0 .441407-.121094 1.28125-.910157 1.941407l-62.257812 51.882812c-1.074219.894531-2.144531.601562-2.6875.347656s-1.457031-.890625-1.457031-2.285156v-22.507812c0-4.183594-3.390626-7.574219-7.570313-7.574219h-103.699219c-20.160156 0-37.003906 16.113281-37.546875 35.917969-.074219 2.605468.121094 5.175781.574219 7.675781-.023438-.023438-.042969-.042969-.066406-.066407-9.691406-9.816406-14.929688-22.828124-14.75-36.636718.363281-27.84375 23.710937-50.5 52.050781-50.5h37.90625c4.183594 0 7.574219-3.390625 7.574219-7.574219 0-4.179687-3.390625-7.570313-7.574219-7.570313h-37.90625c-36.585937 0-66.730469 29.359376-67.19921875 65.449219-.23046825 17.890625 6.55859375 34.75 19.11718775 47.472657 11.6875 11.839843 27.015625 18.722656 43.488281 19.625v150.074218c0 26.449219 21.519531 47.96875 47.96875 47.96875h157.199219l-10.089844 8.410156c-4.042969 3.367188-6.359375 8.316407-6.359375 13.574219 0 5.261719 2.316406 10.210938 6.359375 13.578125l62.257812 51.882813c3.265626 2.722656 7.238282 4.125 11.269532 4.125 2.546875 0 5.113281-.558594 7.539062-1.695313 6.277344-2.941406 10.179688-9.074218 10.179688-16.003906v-14.933594h38.851562c4.183594 0 7.574219-3.390625 7.574219-7.574218 0-4.183594-3.390625-7.574219-7.574219-7.574219h-46.425781c-4.183594 0-7.574219 3.390625-7.574219 7.574219v22.507812c0 1.394531-.910156 2.03125-1.453125 2.285156s-1.613281.546875-2.6875-.347656l-62.257812-51.882812c-.792969-.660157-.910157-1.5-.910157-1.941407 0-.441406.117188-1.28125.910157-1.9375l62.257812-51.882812c1.074219-.894531 2.144531-.601563 2.6875-.347657.542969.253907 1.453125.890626 1.453125 2.285157v22.503906c0 4.183594 3.390625 7.574219 7.574219 7.574219h103.699219c20.160156 0 37.003906-16.113282 37.546875-35.917969.074219-2.601563-.121094-5.171875-.574219-7.671875.023438.019531.042969.042969.066406.0625 9.691406 9.820312 14.929688 22.828125 14.75 36.636719-.363281 27.847656-23.714844 50.5-52.054687 50.5h-21.664063c-4.179687 0-7.570312 3.390625-7.570312 7.574219 0 4.183593 3.390625 7.574218 7.570312 7.574218h21.664063c36.585937 0 66.730469-29.359375 67.199219-65.449218.234374-17.890626-6.554688-34.75-19.113282-47.472657zm-152.554687-231.300781c0-4.734375 3.851562-8.585938 8.582031-8.585938h28.277344c4.734375 0 8.585937 3.851563 8.585937 8.585938v13.632812h-45.445312zm-289.625 65.605469c-4.136719-4.253907-6.328125-9.875-6.164063-15.824219.320313-11.679688 10.371094-21.183594 22.40625-21.183594h8.878906c-8.175781 8.605469-13.210937 20.226563-13.210937 33.003906v10.269532c-4.507813-.773438-8.648437-2.914063-11.910156-6.265625zm394.359375 204.714843h-8.878906c8.175781-8.605468 13.207031-20.222656 13.207031-33.003906v-10.265625c4.511719.769531 8.652343 2.910157 11.910156 6.261719 4.140625 4.257812 6.328125 9.875 6.167969 15.824219-.320313 11.679687-10.371094 21.183593-22.40625 21.183593zm0 0"/><path d="m187.832031 227.898438c0 37.585937 30.582031 68.164062 68.167969 68.164062s68.164062-30.578125 68.164062-68.164062c0-37.589844-30.578124-68.167969-68.164062-68.167969s-68.167969 30.578125-68.167969 68.167969zm121.1875 0c0 29.234374-23.785156 53.015624-53.019531 53.015624s-53.019531-23.78125-53.019531-53.015624c0-29.234376 23.785156-53.019532 53.019531-53.019532s53.019531 23.785156 53.019531 53.019532zm0 0"/><path d="m156.527344 227.898438c0 54.847656 44.625 99.46875 99.472656 99.46875s99.472656-44.621094 99.472656-99.46875c0-54.847657-44.625-99.472657-99.472656-99.472657s-99.472656 44.621094-99.472656 99.472657zm183.796875 0c0 46.496093-37.828125 84.324218-84.324219 84.324218s-84.324219-37.828125-84.324219-84.324218c0-46.496094 37.828125-84.324219 84.324219-84.324219s84.324219 37.828125 84.324219 84.324219zm0 0"/><path d="m97.957031 161.246094c0 15.3125 12.457031 27.769531 27.769531 27.769531s27.773438-12.457031 27.773438-27.769531-12.460938-27.769532-27.773438-27.769532-27.769531 12.457032-27.769531 27.769532zm40.394531 0c0 6.960937-5.664062 12.621094-12.625 12.621094-6.960937 0-12.621093-5.660157-12.621093-12.621094 0-6.960938 5.664062-12.625 12.621093-12.625 6.960938 0 12.625 5.664062 12.625 12.625zm0 0"/></svg>